<svg width="219" height="156" viewBox="0 0 219 156" fill="none" xmlns="http://www.w3.org/2000/svg">
<g clip-path="url(#clip0_653_482)">
<path d="M21.8803 141.874L17.7006 145.716L21.0223 140.152C18.4053 135.414 14.1251 131.319 14.1251 131.319C14.1251 131.319 5.2453 139.812 5.2453 146.488C5.2453 153.165 9.22091 155.496 14.1251 155.496C19.0293 155.496 23.0049 153.165 23.0049 146.488C23.0049 145.002 22.5643 143.427 21.8803 141.874Z" fill="#F2F2F2"/>
<path d="M16.6257 145.924V146.253C16.6061 150.078 15.9599 153.062 14.6919 155.164C14.674 155.195 14.6544 155.224 14.6364 155.255L14.4945 155.169L14.359 155.084C15.7657 152.815 16.2634 149.607 16.2814 146.271C16.283 146.163 16.2846 146.054 16.283 145.945C16.2781 144.532 16.1916 143.104 16.0529 141.716C16.0431 141.608 16.0317 141.499 16.0203 141.39C15.8277 139.559 15.5503 137.809 15.2663 136.289C15.2468 136.182 15.2256 136.074 15.2043 135.968C14.7131 133.398 14.2122 131.535 14.0979 131.123C14.0849 131.073 14.0767 131.045 14.0751 131.039L14.2301 130.995L14.2317 130.993L14.3884 130.949C14.39 130.955 14.4178 131.048 14.4635 131.221C14.6381 131.866 15.0917 133.617 15.5372 135.927C15.5568 136.032 15.578 136.139 15.5976 136.247C15.8293 137.48 16.0562 138.858 16.2357 140.305C16.2814 140.668 16.3222 141.027 16.3581 141.38C16.3711 141.489 16.3825 141.598 16.3923 141.706C16.5425 143.206 16.6203 144.612 16.6257 145.924Z" fill="white"/>
<path d="M15.5372 135.928C15.4279 135.942 15.3169 135.957 15.2043 135.968C14.8985 136 14.5914 136.015 14.284 136.016C12.9739 136.017 11.6801 135.726 10.498 135.162C10.4295 135.248 10.3609 135.335 10.2908 135.423C11.5343 136.029 12.9002 136.343 14.284 136.341C14.6121 136.341 14.94 136.324 15.2663 136.289C15.3773 136.278 15.4883 136.263 15.5976 136.247C16.5001 136.118 17.3777 135.852 18.2004 135.46C18.1303 135.37 18.0617 135.282 17.9948 135.196C17.2162 135.559 16.388 135.806 15.5372 135.928Z" fill="white"/>
<path d="M16.3581 141.38C16.2455 141.387 16.1329 141.39 16.0203 141.39C15.986 141.392 15.9501 141.392 15.9158 141.392C14.4963 141.392 13.0978 141.049 11.8396 140.393C10.5814 139.737 9.50082 138.787 8.68991 137.623C8.62464 137.72 8.55936 137.816 8.49573 137.913C9.34093 139.09 10.4549 140.049 11.7452 140.711C13.0356 141.372 14.4653 141.717 15.9158 141.717C15.9615 141.717 16.0072 141.717 16.0529 141.716C16.1671 141.714 16.2797 141.711 16.3923 141.706C18.1347 141.617 19.8145 141.029 21.2308 140.012C21.1786 139.916 21.1264 139.819 21.0725 139.723C19.696 140.722 18.0576 141.298 16.3581 141.38Z" fill="white"/>
<path d="M16.6257 145.924C16.5115 145.933 16.3972 145.94 16.283 145.945C16.1606 145.95 16.0382 145.953 15.9158 145.953C14.0084 145.951 12.1529 145.332 10.6273 144.189C9.10172 143.046 7.98801 141.44 7.45295 139.613C7.37951 139.745 7.30608 139.875 7.2359 140.007C7.83878 141.83 9.00193 143.418 10.5601 144.544C12.1183 145.67 13.9923 146.277 15.9158 146.279C16.0382 146.279 16.1606 146.277 16.2814 146.271C16.3972 146.267 16.5115 146.261 16.6257 146.253C18.933 146.073 21.0855 145.024 22.6473 143.319C22.613 143.198 22.5739 143.079 22.5347 142.959C21.0262 144.677 18.9066 145.74 16.6257 145.924Z" fill="white"/>
<path d="M219 19.6904H138.804V68.1924H219V19.6904Z" fill="#F0F0F0"/>
<path d="M217.65 9.29728H105.893C105.824 9.29728 105.759 9.27007 105.71 9.22164C105.662 9.1732 105.634 9.10751 105.634 9.03902C105.634 8.97053 105.662 8.90484 105.71 8.8564C105.759 8.80797 105.824 8.78076 105.893 8.78076H217.65C217.719 8.78076 217.785 8.80797 217.833 8.8564C217.882 8.90484 217.909 8.97053 217.909 9.03902C217.909 9.10751 217.882 9.1732 217.833 9.22164C217.785 9.27007 217.719 9.29728 217.65 9.29728Z" fill="#CACACA"/>
<path d="M111.716 5.68167C113.287 5.68167 114.561 4.40979 114.561 2.84084C114.561 1.27189 113.287 0 111.716 0C110.144 0 108.87 1.27189 108.87 2.84084C108.87 4.40979 110.144 5.68167 111.716 5.68167Z" fill="#3F3D56"/>
<path d="M121.546 5.68167C123.118 5.68167 124.392 4.40979 124.392 2.84084C124.392 1.27189 123.118 0 121.546 0C119.975 0 118.701 1.27189 118.701 2.84084C118.701 4.40979 119.975 5.68167 121.546 5.68167Z" fill="#3F3D56"/>
<path d="M131.377 5.68167C132.948 5.68167 134.222 4.40979 134.222 2.84084C134.222 1.27189 132.948 0 131.377 0C129.805 0 128.531 1.27189 128.531 2.84084C128.531 4.40979 129.805 5.68167 131.377 5.68167Z" fill="#3F3D56"/>
<path d="M184.597 43.3499L179.715 38.3274C179.609 38.2202 179.481 38.1359 179.341 38.0796C179.201 38.0233 179.05 37.9963 178.899 38.0001H178.884C178.733 37.9963 178.583 38.0233 178.443 38.0796C178.302 38.1359 178.175 38.2202 178.068 38.3274L173.187 43.3499C172.978 43.5447 172.855 43.8143 172.846 44.0994C172.836 44.3844 172.94 44.6616 173.136 44.87C173.152 44.8876 173.169 44.9046 173.187 44.921C173.41 45.1296 173.704 45.2456 174.01 45.2456C174.316 45.2456 174.61 45.1296 174.833 44.921L177.726 41.9025V49.6853C177.739 49.985 177.868 50.2679 178.085 50.4752C178.302 50.6825 178.591 50.7982 178.892 50.7982C179.192 50.7982 179.481 50.6825 179.698 50.4752C179.915 50.2679 180.044 49.985 180.058 49.6853V41.9025L182.95 44.921C183.173 45.1296 183.468 45.2456 183.773 45.2456C184.079 45.2456 184.374 45.1296 184.597 44.921C184.805 44.7262 184.928 44.4567 184.938 44.1716C184.947 43.8865 184.843 43.6093 184.648 43.401C184.631 43.3834 184.614 43.3664 184.597 43.3499Z" fill="white"/>
<path d="M178.902 55.908C176.636 55.908 174.421 55.2372 172.537 53.9805C170.653 52.7237 169.184 50.9375 168.317 48.8476C167.45 46.7578 167.223 44.4581 167.665 42.2396C168.107 40.021 169.199 37.9831 170.801 36.3836C172.403 34.784 174.444 33.6948 176.667 33.2535C178.889 32.8122 181.193 33.0386 183.286 33.9043C185.38 34.7699 187.169 36.2359 188.428 38.1167C189.687 39.9975 190.358 42.2088 190.358 44.4708C190.355 47.5031 189.147 50.4102 186.999 52.5543C184.851 54.6985 181.939 55.9045 178.902 55.908ZM178.902 33.4573C176.72 33.4573 174.587 34.1032 172.773 35.3134C170.958 36.5236 169.544 38.2437 168.709 40.2561C167.874 42.2686 167.656 44.483 168.082 46.6195C168.507 48.7559 169.558 50.7183 171.101 52.2586C172.644 53.7989 174.609 54.8478 176.75 55.2728C178.89 55.6977 181.108 55.4796 183.124 54.646C185.14 53.8124 186.863 52.4008 188.075 50.5896C189.287 48.7785 189.934 46.6491 189.934 44.4708C189.931 41.5509 188.767 38.7515 186.699 36.6867C184.631 34.622 181.827 33.4606 178.902 33.4573Z" fill="white"/>
<path d="M185.276 94.0989H110.374C109.609 94.097 108.988 92.83 108.987 91.2658V53.3136C108.987 51.7497 109.609 50.4831 110.374 50.4805H185.276C186.041 50.4824 186.662 51.7494 186.663 53.3136V91.2654C186.662 92.8294 186.04 94.097 185.276 94.0989Z" fill="white"/>
<path d="M134.463 72.0453C138.08 72.0453 141.012 69.1178 141.012 65.5066C141.012 61.8955 138.08 58.968 134.463 58.968C130.845 58.968 127.913 61.8955 127.913 65.5066C127.913 69.1178 130.845 72.0453 134.463 72.0453Z" fill="#3F3D56"/>
<path d="M155.002 85.6556H122.871C122.831 85.6561 122.791 85.6528 122.751 85.6459L137.948 59.3687C138.041 59.205 138.175 59.0688 138.338 58.9741C138.501 58.8793 138.686 58.8293 138.874 58.8293C139.063 58.8293 139.248 58.8793 139.41 58.9741C139.573 59.0688 139.708 59.205 139.8 59.3687L149.999 77.0029L150.488 77.8465L155.002 85.6556Z" fill="#003D66"/>
<path d="M172.891 85.656H145.1L150.485 77.8476L150.873 77.285L157.89 67.1086C158.014 66.9529 158.17 66.8251 158.347 66.7333C158.524 66.6416 158.718 66.5881 158.917 66.5762C159.116 66.5644 159.315 66.5945 159.502 66.6646C159.688 66.7347 159.858 66.8432 160 66.9831C160.036 67.0227 160.07 67.0647 160.101 67.1086L172.891 85.656Z" fill="#003D66"/>
<path d="M185.276 94.0989H110.374C109.609 94.097 108.988 92.83 108.987 91.2658V53.3136C108.987 51.7497 109.609 50.4831 110.374 50.4805H185.276C186.041 50.4824 186.662 51.7494 186.663 53.3136V91.2654C186.662 92.8294 186.04 94.097 185.276 94.0989ZM110.374 51.6137C109.915 51.6137 109.542 52.3753 109.542 53.3136V91.2654C109.542 92.2037 109.915 92.9644 110.374 92.9654H185.276C185.735 92.9654 186.107 92.204 186.108 91.2654V53.3136C186.108 52.3753 185.735 51.6147 185.276 51.6137L110.374 51.6137Z" fill="#E6E6E6"/>
<path d="M98.8226 156H0.258698C0.190087 156 0.124286 155.973 0.0757707 155.924C0.0272554 155.876 0 155.81 0 155.742C0 155.673 0.0272554 155.608 0.0757707 155.559C0.124286 155.511 0.190087 155.484 0.258698 155.484H98.8226C98.8912 155.484 98.957 155.511 99.0055 155.559C99.054 155.608 99.0813 155.673 99.0813 155.742C99.0813 155.81 99.054 155.876 99.0055 155.924C98.957 155.973 98.8912 156 98.8226 156Z" fill="#CACACA"/>
<path d="M69.3185 53.5528C66.8826 50.1283 62.0633 49.9687 62.0633 49.9687C62.0633 49.9687 57.3672 49.4691 54.3547 54.6846C51.5468 59.5458 55.5031 65.5885 55.5031 65.5885C56.285 65.6353 59.6659 65.6557 69.7271 64.4148L70.1779 61.9879L71.4711 64.2011C72.0088 64.1355 72.568 64.0677 73.1525 63.9973C72.888 61.4219 71.6624 56.8478 69.3185 53.5528Z" fill="#2F2E41"/>
<path d="M75.0605 101.466L74.4152 79.3062L70.0217 81.225L72.1417 101.706C71.6847 102.06 71.3544 102.552 71.2 103.108C71.0457 103.665 71.0755 104.256 71.2851 104.794C71.4947 105.332 71.8728 105.788 72.3631 106.094C72.8534 106.4 73.4297 106.54 74.006 106.493C74.5824 106.445 75.1279 106.213 75.5614 105.831C75.995 105.449 76.2932 104.937 76.4118 104.372C76.5303 103.807 76.4628 103.219 76.2193 102.695C75.9758 102.172 75.5694 101.741 75.0605 101.466Z" fill="#FFB8B8"/>
<path d="M69.3353 82.1844C72.2006 82.4612 74.2586 81.2795 75.6508 78.895L74.6898 74.5018C74.6898 73.0726 74.2335 71.6806 73.3872 70.5279C72.541 69.3751 71.3487 68.5216 69.9835 68.0912L69.4726 67.9302L69.3353 82.1844Z" fill="#E6E6E6"/>
<path d="M45.4346 76.0909C45.397 76.0909 45.3595 76.087 45.3228 76.0793L40.0225 75.99L40.0109 75.8584L40.0111 75.8528L40.4509 64.9503C40.4558 64.8389 40.4826 64.7296 40.5299 64.6286C40.5771 64.5275 40.6439 64.4368 40.7263 64.3615C40.8086 64.2863 40.9051 64.2279 41.0101 64.1899C41.115 64.1518 41.2265 64.1348 41.3381 64.1398L45.5835 64.3288C45.695 64.3337 45.8045 64.3606 45.9056 64.4078C46.0068 64.455 46.0976 64.5216 46.1729 64.6038C46.2483 64.6861 46.3067 64.7823 46.3448 64.8871C46.3829 64.9919 46.3999 65.1031 46.3949 65.2144L45.9773 75.57C45.9716 75.7099 45.9119 75.8422 45.8108 75.9393C45.7097 76.0364 45.5749 76.0907 45.4346 76.0909Z" fill="#003D66"/>
<path d="M44.8569 76.0986C44.8434 76.0986 44.8299 76.0983 44.8163 76.0977L40.6546 75.9124C40.4183 75.9016 40.196 75.7977 40.0363 75.6235C39.8767 75.4493 39.7928 75.2189 39.8031 74.9831L40.2476 65.0284C40.258 64.8036 40.3572 64.5921 40.5235 64.4402C40.6898 64.2883 40.9097 64.2086 41.1349 64.2183L45.3802 64.4073C45.6054 64.4175 45.8173 64.5166 45.9694 64.6826C46.1216 64.8487 46.2015 65.0682 46.1917 65.293L45.7472 75.2477C45.7369 75.4766 45.6387 75.6928 45.4729 75.8513C45.3071 76.0097 45.0865 76.0983 44.8569 76.0986Z" fill="#2F2E41"/>
<path d="M42.9936 67.4251C43.3292 67.4251 43.6013 67.1535 43.6013 66.8184C43.6013 66.4833 43.3292 66.2117 42.9936 66.2117C42.6579 66.2117 42.3858 66.4833 42.3858 66.8184C42.3858 67.1535 42.6579 67.4251 42.9936 67.4251Z" fill="#003D66"/>
<path d="M48.046 78.7997V82.8013L44.1737 76.7099C44.449 76.2401 44.5647 75.694 44.5036 75.1532C44.4425 74.6123 44.2078 74.1057 43.8347 73.7088C43.4616 73.312 42.9699 73.0462 42.4331 72.9512C41.8963 72.8561 41.3431 72.9368 40.856 73.1813C40.3689 73.4258 39.974 73.8209 39.7303 74.3078C39.4866 74.7947 39.407 75.3471 39.5036 75.8828C39.6001 76.4185 39.8675 76.9087 40.2659 77.2802C40.6644 77.6517 41.1724 77.8847 41.7143 77.9444L47.1273 87.5193C47.4096 88.0186 47.8441 88.4149 48.3677 88.6504C48.8913 88.886 49.4765 88.9485 50.0382 88.8289C50.5999 88.7093 51.1086 88.4138 51.4903 87.9855C51.872 87.5571 52.1068 87.0183 52.1604 86.4475L52.8302 79.3161L48.046 78.7997Z" fill="#FFB8B8"/>
<path d="M53.3474 81.8977C50.6489 82.1583 48.7107 81.0455 47.3995 78.7997L48.3046 74.6623C48.3046 73.3163 48.7343 72.0053 49.5313 70.9196C50.3283 69.834 51.4512 69.0302 52.7369 68.6248L53.2181 68.4731L53.3474 81.8977Z" fill="#E6E6E6"/>
<path d="M59.6035 153.601L56.6509 153.123L57.0938 141.527L61.4513 142.232L59.6035 153.601Z" fill="#FFB6B6"/>
<path d="M60.2667 155.829L50.6224 155.839L50.6223 155.717C50.6213 154.723 51.0158 153.77 51.7191 153.066C52.4223 152.363 53.3766 151.967 54.3722 151.966L60.2628 151.96L60.2667 155.829Z" fill="#2F2E41"/>
<path d="M73.7126 146.849L71.0421 148.194L64.5746 138.551L68.5159 136.566L73.7126 146.849Z" fill="#FFB6B6"/>
<path d="M75.6997 149.09L67.0893 153.426L67.0343 153.318C66.5859 152.43 66.5089 151.402 66.8203 150.458C67.1317 149.514 67.8059 148.732 68.6947 148.284L73.9538 145.635L75.6997 149.09Z" fill="#2F2E41"/>
<path d="M61.7325 64.5879C64.6322 64.5879 66.9828 62.2413 66.9828 59.3466C66.9828 56.4519 64.6322 54.1052 61.7325 54.1052C58.8329 54.1052 56.4822 56.4519 56.4822 59.3466C56.4822 62.2413 58.8329 64.5879 61.7325 64.5879Z" fill="#FFB8B8"/>
<path d="M68.2416 54.063L63.4804 51.5732L56.9054 52.5918L55.545 58.5899C62.2599 59.5539 66.9076 60.1068 68.4683 58.4767L68.2416 54.063Z" fill="#2F2E41"/>
<path d="M53.2649 92.1212C53.2649 92.1212 49.2625 100.293 53.697 112.385L65.9457 143.565L71.8013 140.109L65.8324 126.686L70.6877 110.255C71.8057 106.532 72.1504 102.619 71.7006 98.7579C71.3507 95.8685 70.5386 92.9301 68.7721 91.4488C64.6156 87.9633 53.2649 92.1212 53.2649 92.1212Z" fill="#2F2E41"/>
<path d="M59.9605 124.312L55.52 146.787L61.4338 147.9L65.1541 128.446L59.9605 124.312Z" fill="#2F2E41"/>
<path d="M65.605 67.1472L58.8168 67.2376L52.8748 68.6021L53.2269 92.3617C53.2269 92.3617 63.9702 95.396 68.689 91.1998L71.8014 68.9619C70.0549 67.9765 67.9578 67.4092 65.605 67.1472Z" fill="#E4E4E4"/>
<path d="M65.0039 53.982C66.8613 53.982 68.367 52.4789 68.367 50.6247C68.367 48.7705 66.8613 47.2673 65.0039 47.2673C63.1466 47.2673 61.6409 48.7705 61.6409 50.6247C61.6409 52.4789 63.1466 53.982 65.0039 53.982Z" fill="#2F2E41"/>
<path d="M61.6409 49.8499C61.6406 49.3534 61.7508 48.863 61.9633 48.4141C62.1759 47.9652 62.4856 47.569 62.8701 47.254C63.2546 46.9391 63.7043 46.7132 64.1869 46.5928C64.6694 46.4724 65.1727 46.4603 65.6604 46.5575C65.2298 46.3548 64.761 46.2456 64.285 46.2373C63.8091 46.229 63.3367 46.3217 62.8993 46.5094C62.4619 46.697 62.0694 46.9752 61.7478 47.3256C61.4262 47.676 61.1828 48.0907 61.0338 48.542C60.8847 48.9934 60.8334 49.4712 60.8833 49.9439C60.9331 50.4165 61.0829 50.8732 61.3229 51.2837C61.5628 51.6942 61.8873 52.0492 62.2749 52.325C62.6626 52.6009 63.1045 52.7915 63.5714 52.8841C62.9945 52.6133 62.5066 52.1842 62.1647 51.6469C61.8229 51.1097 61.6412 50.4864 61.6409 49.8499Z" fill="#2F2E41"/>
</g>
<defs>
<clipPath id="clip0_653_482">
<rect width="219" height="156" fill="white"/>
</clipPath>
</defs>
</svg>
