<svg width="97" height="173" viewBox="0 0 97 173" fill="none" xmlns="http://www.w3.org/2000/svg">
<g clip-path="url(#clip0_653_333)">
<path d="M71.089 0H16.739C8.28595 0 1.4334 6.8458 1.4334 15.2905V139.363C1.4334 147.808 8.28595 154.654 16.739 154.654H71.089C79.5421 154.654 86.3946 147.808 86.3946 139.363V15.2905C86.3946 6.8458 79.5421 0 71.089 0Z" fill="#3F3D56"/>
<path d="M84.9613 15.2916V139.364C84.9571 143.038 83.4941 146.561 80.8934 149.159C78.2927 151.757 74.7666 153.218 71.0887 153.223H16.7396C13.0616 153.218 9.53552 151.757 6.93482 149.159C4.33411 146.561 2.87117 143.038 2.86691 139.364V15.2916C2.87117 11.6173 4.33411 8.09466 6.93482 5.49651C9.53552 2.89837 13.0616 1.43687 16.7396 1.43262H23.8466V3.88521C23.8467 4.99554 24.2882 6.06038 25.0741 6.84551C25.86 7.63063 26.9259 8.07174 28.0373 8.0718C37.2384 10.8485 48.0388 10.4151 59.7909 8.0718C60.9024 8.07174 61.9682 7.63063 62.7541 6.84551C63.54 6.06038 63.9816 4.99554 63.9817 3.88521V1.43262H71.0887C74.7666 1.43687 78.2927 2.89837 80.8934 5.49651C83.4941 8.09466 84.9571 11.6173 84.9613 15.2916Z" fill="white"/>
<path d="M1.04247 31.3733C0.766082 31.373 0.50111 31.2631 0.305677 31.0679C0.110245 30.8727 0.00031279 30.608 -3.8147e-06 30.3318V28.249C-3.8147e-06 27.9728 0.109827 27.7079 0.305328 27.5125C0.500828 27.3172 0.765985 27.2075 1.04247 27.2075C1.31895 27.2075 1.5841 27.3172 1.7796 27.5125C1.9751 27.7079 2.08493 27.9728 2.08493 28.249V30.3318C2.08462 30.608 1.97469 30.8727 1.77925 31.0679C1.58382 31.2631 1.31885 31.373 1.04247 31.3733Z" fill="#3F3D56"/>
<path d="M1.04248 42.0537C0.766094 42.0534 0.501121 41.9436 0.305689 41.7483C0.110256 41.5531 0.000323546 41.2884 7.62939e-06 41.0123V35.2787C7.62939e-06 35.0025 0.109838 34.7376 0.305339 34.5423C0.50084 34.347 0.765997 34.2373 1.04248 34.2373C1.31896 34.2373 1.58411 34.347 1.77961 34.5423C1.97512 34.7376 2.08495 35.0025 2.08495 35.2787V41.0123C2.08463 41.2884 1.9747 41.5531 1.77926 41.7483C1.58383 41.9436 1.31886 42.0534 1.04248 42.0537Z" fill="#3F3D56"/>
<path d="M1.04248 50.6401C0.766094 50.6398 0.501121 50.53 0.305689 50.3348C0.110256 50.1395 0.000323546 49.8748 7.62939e-06 49.5987V43.8652C7.62939e-06 43.589 0.109838 43.3241 0.305339 43.1288C0.50084 42.9335 0.765997 42.8237 1.04248 42.8237C1.31896 42.8237 1.58411 42.9335 1.77961 43.1288C1.97512 43.3241 2.08495 43.589 2.08495 43.8652V49.5987C2.08463 49.8748 1.9747 50.1395 1.77926 50.3348C1.58383 50.53 1.31886 50.6398 1.04248 50.6401Z" fill="#3F3D56"/>
<path d="M86.5253 29.8821C86.2492 29.8819 85.9843 29.9912 85.7888 30.1859C85.5934 30.3807 85.4833 30.6451 85.4828 30.9209V44.9127C85.4828 45.1889 85.5926 45.4538 85.7881 45.6491C85.9837 45.8444 86.2488 45.9541 86.5253 45.9541C86.8018 45.9541 87.0669 45.8444 87.2624 45.6491C87.4579 45.4538 87.5678 45.1889 87.5678 44.9127V30.9209C87.5668 30.6452 87.4566 30.3811 87.2613 30.1864C87.0659 29.9917 86.8012 29.8823 86.5253 29.8821Z" fill="#3F3D56"/>
<path d="M20.7415 7.56942H13.7048C13.3592 7.56942 13.0277 7.43227 12.7834 7.18813C12.539 6.944 12.4017 6.61288 12.4017 6.26762C12.4017 5.92236 12.539 5.59124 12.7834 5.34711C13.0277 5.10297 13.3592 4.96582 13.7048 4.96582H20.7415C21.0871 4.96582 21.4185 5.10297 21.6629 5.34711C21.9072 5.59124 22.0445 5.92236 22.0445 6.26762C22.0445 6.61288 21.9072 6.944 21.6629 7.18813C21.4185 7.43227 21.0871 7.56942 20.7415 7.56942Z" fill="#E6E6E6"/>
<path d="M61.6253 137.92C59.6643 138.043 58.5806 135.609 60.0642 134.19C60.1185 133.974 60.1575 133.82 60.2118 133.604C60.1923 133.557 60.1728 133.51 60.1531 133.463C58.17 128.739 54.1546 131.391 49.4828 133.503C45.6296 135.244 41.7459 137.513 44.9686 146.348C45.6455 148.204 44.8337 150.304 45.269 152.228C41.17 143.295 39.0415 133.586 39.0278 123.76C39.0269 121.294 39.1641 118.83 39.4386 116.38C39.6654 114.371 39.9802 112.376 40.3828 110.396C42.0736 102.154 45.245 94.286 49.7434 87.1735C49.1708 87.1812 48.5973 87.1874 48.0228 87.1921C46.989 88.8783 46.0256 90.6045 45.1327 92.3708C45.3372 90.6558 45.3708 88.9246 45.233 87.2029C38.2665 87.2005 31.3051 86.9779 25.1503 86.5352C25.3837 105.38 32.3468 109.309 40.8854 100.284C41.1245 100.406 41.3575 100.529 41.5966 100.645C39.5399 106.468 38.2498 112.533 37.7588 118.689C37.4808 122.32 37.4972 125.968 37.8078 129.597C37.8017 129.554 37.7955 129.511 37.7894 129.468C37.0046 125.433 34.8499 121.792 31.6893 119.16C26.9949 115.308 20.3626 113.889 15.2982 110.793C12.8603 109.302 9.73638 111.228 10.1619 114.052C10.1687 114.097 10.1756 114.142 10.1826 114.187C10.9375 114.494 11.6726 114.848 12.3835 115.247C12.7903 115.476 13.1885 115.719 13.5782 115.977C15.7988 117.444 15.0314 120.883 12.4002 121.289L12.3405 121.298C12.2976 121.304 12.2608 121.31 12.218 121.316C13.5079 124.393 15.3184 127.225 17.5701 129.689C18.198 149.043 28.3914 146.548 39.2976 139.213H39.3037C40.4112 144.021 42.0159 148.7 44.0919 153.177H61.1967C61.258 152.987 61.3132 152.791 61.3684 152.601C59.7851 152.701 58.1956 152.606 56.6354 152.32C57.9045 150.764 59.1735 149.196 60.4426 147.64C60.4709 147.611 60.4975 147.58 60.5223 147.548C61.166 146.752 61.8159 145.962 62.4596 145.166L62.46 145.165C62.4943 142.724 62.2139 140.289 61.6258 137.92L61.6253 137.92Z" fill="#003D66"/>
<path d="M43.399 78.8964C41.7397 74.8972 38.6294 71.5292 35.8904 68.0719C32.6005 63.9192 25.8542 65.7315 25.2745 70.9957C25.2689 71.0467 25.2635 71.0976 25.2581 71.1486C25.665 71.3778 26.0632 71.6212 26.4528 71.8787C28.6735 73.3459 27.906 76.7849 25.2748 77.1906L25.2152 77.1998C25.3601 78.6646 25.6163 80.1163 25.9815 81.5423C25.5448 83.1761 25.2664 84.8481 25.1503 86.5352C31.3051 86.9779 38.2665 87.2005 45.233 87.203C45.0072 84.142 44.3259 81.128 43.399 78.8964Z" fill="#E6E6E6"/>
<path d="M61.3069 73.8282C61.9176 72.6146 62.3492 71.319 62.5883 69.9819C62.2143 70.0309 61.1782 64.3409 61.4602 63.9919C60.9391 63.2018 60.0063 62.809 59.4371 62.0381C56.6062 58.2039 52.7061 58.8734 50.67 64.0838C46.3206 66.2768 46.2785 69.9138 48.9473 73.4117C50.6452 75.6371 50.8785 78.6483 52.3683 81.0308C52.215 81.2268 52.0556 81.4167 51.9023 81.6127C50.3169 83.6486 48.8477 85.772 47.5015 87.973C48.076 87.9684 48.6495 87.9622 49.2222 87.9545C50.5732 85.8191 52.0432 83.7611 53.6251 81.7903C56.9403 79.9833 59.6213 77.2044 61.3069 73.8282Z" fill="#E6E6E6"/>
<path opacity="0.1" d="M84.7889 15.2352V81.5073C84.7889 89.1489 2.69444 89.1489 2.69444 81.5073V15.2352C2.69869 11.5609 4.16164 8.03826 6.76234 5.44012C9.36305 2.84198 12.8891 1.38047 16.5671 1.37622H23.6741V3.82882C23.6742 4.93915 24.1157 6.00399 24.9016 6.78911C25.6875 7.57424 26.7534 8.01534 27.8649 8.0154C36.6751 10.7797 47.5517 10.3247 59.6184 8.0154C60.7299 8.01534 61.7958 7.57423 62.5817 6.78911C63.3676 6.00399 63.8091 4.93915 63.8092 3.82882V1.37622H70.9162C74.5942 1.38048 78.1202 2.84198 80.7209 5.44012C83.3217 8.03826 84.7846 11.5609 84.7889 15.2352Z" fill="black"/>
<path d="M51.5478 22.3967H49.2023C48.304 22.3977 47.4429 22.7546 46.8077 23.3892C46.1725 24.0237 45.8153 24.884 45.8143 25.7814V28.385H41.6444C40.7461 28.386 39.885 28.7429 39.2498 29.3775C38.6146 30.012 38.2574 30.8723 38.2564 31.7697V36.9769C38.2574 37.8743 38.6146 38.7346 39.2498 39.3691C39.885 40.0037 40.7461 40.3606 41.6444 40.3616H46.8567C47.755 40.3606 48.6162 40.0037 49.2513 39.3691C49.8865 38.7346 50.2438 37.8743 50.2448 36.9769V31.7697C50.2438 30.8723 49.8865 30.012 49.2513 29.3775C48.6162 28.7429 47.755 28.386 46.8567 28.385H46.3355V25.7814C46.3364 25.0221 46.6387 24.2941 47.1761 23.7572C47.7136 23.2203 48.4422 22.9183 49.2023 22.9174H51.5478C52.3079 22.9183 53.0366 23.2203 53.574 23.7572C54.1115 24.2941 54.4138 25.0221 54.4146 25.7814V28.6454H54.9359V25.7814C54.9349 24.884 54.5776 24.0237 53.9424 23.3892C53.3073 22.7546 52.4461 22.3977 51.5478 22.3967ZM49.7235 31.7697V36.9769C49.7227 37.7362 49.4204 38.4642 48.8829 39.0011C48.3455 39.538 47.6168 39.84 46.8567 39.8409H41.6444C40.8843 39.84 40.1557 39.538 39.6182 39.0011C39.0808 38.4642 38.7785 37.7362 38.7776 36.9769V31.7697C38.7785 31.0104 39.0808 30.2824 39.6182 29.7455C40.1557 29.2086 40.8843 28.9066 41.6444 28.9057C44.1123 30.3401 45.4719 29.5982 46.8567 28.9057C47.6168 28.9066 48.3455 29.2086 48.8829 29.7455C49.4204 30.2824 49.7227 31.0104 49.7235 31.7697Z" fill="white"/>
<path d="M44.2506 36.7165C44.7145 36.7165 45.1679 36.5791 45.5537 36.3216C45.9394 36.0641 46.24 35.6982 46.4176 35.27C46.5951 34.8418 46.6415 34.3707 46.551 33.9161C46.4605 33.4616 46.2371 33.0441 45.9091 32.7163C45.5811 32.3886 45.1632 32.1655 44.7082 32.0751C44.2532 31.9846 43.7815 32.031 43.3529 32.2084C42.9244 32.3858 42.558 32.6861 42.3003 33.0714C42.0426 33.4568 41.905 33.9098 41.905 34.3733C41.9057 34.9945 42.1531 35.5901 42.5928 36.0294C43.0325 36.4687 43.6287 36.7158 44.2506 36.7165ZM44.2506 33.8525C45.2565 33.8525 46.0749 33.3683 46.0749 34.3733C46.0749 34.8566 45.8827 35.3202 45.5405 35.662C45.1984 36.0038 44.7344 36.1958 44.2506 36.1958C43.7667 36.1958 43.3027 36.0038 42.9606 35.662C42.6184 35.3202 42.4262 34.8566 42.4262 34.3733C42.4262 33.3683 43.2446 33.8525 44.2506 33.8525Z" fill="white"/>
<path d="M44.2506 35.1544C44.6824 35.1544 45.0324 34.8047 45.0324 34.3734C45.0324 33.942 44.6824 33.5923 44.2506 33.5923C43.8188 33.5923 43.4687 33.942 43.4687 34.3734C43.4687 34.8047 43.8188 35.1544 44.2506 35.1544Z" fill="white"/>
<path d="M87.5678 37.4976H85.6887V38.0183H87.5678V37.4976Z" fill="white"/>
<path opacity="0.1" d="M2.81242 80.2104V81.5123C2.81242 89.1538 84.9069 89.1538 84.9069 81.5123V80.2104C84.9069 87.852 2.81242 87.852 2.81242 80.2104Z" fill="black"/>
<path d="M75.3233 98.8374C75.8332 98.7336 76.2824 98.4351 76.5753 98.0055C76.8683 97.5759 76.9819 97.049 76.8919 96.537C76.872 96.4332 76.8435 96.3312 76.8068 96.2322L82.1465 91.7584L80.8275 88.2529L74.176 95.1714C73.7765 95.3555 73.4492 95.6666 73.2453 96.056C73.0414 96.4455 72.9722 96.8914 73.0486 97.3242C73.1412 97.8208 73.4275 98.2602 73.8445 98.5459C74.2614 98.8316 74.7749 98.9402 75.2719 98.8477C75.2891 98.8445 75.3062 98.841 75.3233 98.8374Z" fill="#A0616A"/>
<path d="M77.8376 72.4395L75.7201 74.1264C75.7201 74.1264 73.1895 78.7226 75.0034 79.6758C76.8173 80.6291 82.4564 83.7993 82.4564 83.7993C82.4564 83.7993 80.1259 86.1172 79.851 87.2429C79.5761 88.3686 80.1846 89.3689 79.2187 89.1335C78.2528 88.8981 78.2254 89.6646 77.9898 90.6295C77.7541 91.5945 76.1835 92.4831 76.1835 92.4831L79.1857 94.696C79.1857 94.696 80.5753 95.1863 80.6893 94.0213C80.8032 92.8564 80.4867 93.0207 81.4525 93.2561C82.4184 93.4915 83.2323 91.9816 83.7467 90.5734C84.2611 89.1653 89.5099 82.611 89.5099 82.611L84.0184 76.506C82.3421 74.6425 80.2134 73.2419 77.8376 72.4395Z" fill="#003D66"/>
<path d="M77.3551 168.108L75.1688 168.089L74.2011 159.468L77.4278 159.496L77.3551 168.108Z" fill="#A0616A"/>
<path d="M70.3523 171.581C70.3504 171.84 70.4513 172.089 70.633 172.273C70.8147 172.458 71.0622 172.563 71.3214 172.566L75.6682 172.602L76.4291 171.061L76.7086 172.61L78.3487 172.625L77.9346 167.101L77.364 167.063L75.0365 166.902L74.2856 166.852L74.2724 168.415L70.7806 170.781C70.6498 170.87 70.5425 170.989 70.4679 171.128C70.3933 171.267 70.3537 171.423 70.3523 171.581Z" fill="#2F2E41"/>
<path d="M57.2834 168.108L55.0974 168.089L54.1294 159.468L57.3561 159.496L57.2834 168.108Z" fill="#A0616A"/>
<path d="M50.2808 171.581C50.2788 171.84 50.3797 172.089 50.5614 172.273C50.7431 172.458 50.9907 172.563 51.2498 172.566L55.5966 172.602L56.3575 171.061L56.637 172.61L58.2771 172.625L57.863 167.101L57.2924 167.063L54.9649 166.902L54.214 166.852L54.2008 168.415L50.7091 170.781C50.5783 170.87 50.4709 170.989 50.3963 171.128C50.3217 171.267 50.2821 171.423 50.2808 171.581Z" fill="#2F2E41"/>
<path d="M62.9397 95.1062C62.9397 95.1062 58.7417 97.1721 59.8361 98.4157C60.9305 99.6593 60.031 100.362 58.6669 101.531C57.3028 102.699 54.5567 116.381 54.5567 116.381L51.0008 137.577C51.0008 137.577 51.9442 156.085 52.5774 156.744C53.2105 157.403 54.1849 156.43 53.2105 157.403C52.2362 158.376 51.4567 157.598 52.2362 158.376C53.0157 159.155 53.2105 161.297 53.2105 161.297L58.2603 160.871C58.2603 160.871 61.5472 146.645 59.3276 140.344L68.0353 117.29L70.6679 139.534C70.6679 139.534 72.1129 157.598 73.0872 158.182C74.0616 158.766 74.7636 158.805 73.9254 159.564C73.0872 160.323 73.0872 159.155 73.0872 160.323V162.261L77.801 162.907C77.801 162.907 79.9905 145.59 78.9747 137.577L82.0512 110.68L79.6547 98.5598L77.1795 95.3009L62.9397 95.1062Z" fill="#2F2E41"/>
<path d="M42.6822 88.5506C43.1025 88.8572 43.6258 88.9878 44.141 88.9148C44.6562 88.8417 45.1225 88.5707 45.4408 88.1594C45.5041 88.0748 45.5604 87.9851 45.6089 87.8912L52.5155 88.8206L54.2206 85.4854L44.6217 85.2341C44.2164 85.0632 43.7658 85.031 43.3403 85.1428C42.9148 85.2545 42.5383 85.5038 42.2696 85.8518C42.1186 86.0513 42.0083 86.2785 41.9452 86.5205C41.8821 86.7625 41.8673 87.0146 41.9017 87.2624C41.9361 87.5101 42.019 87.7486 42.1457 87.9643C42.2724 88.1801 42.4404 88.3687 42.64 88.5196C42.654 88.5301 42.668 88.5405 42.6822 88.5506Z" fill="#A0616A"/>
<path d="M63.9062 72.6263L61.2318 72.199C61.2318 72.199 58.0219 73.9497 58.5385 75.9312C59.055 77.9127 58.6127 83.6885 58.6127 83.6885C58.6127 83.6885 55.3281 83.5289 54.31 84.0842C53.292 84.6394 52.9618 85.7625 52.4854 84.8908C52.009 84.019 52.5113 83.5564 51.6387 84.0324C50.7661 84.5083 47.9628 84.9058 47.9628 84.9058L46.8358 88.7393C46.8358 88.7393 48.4016 90.8902 49.3402 90.1897C50.2788 89.4891 50.4635 88.4454 50.9399 89.3171C51.4164 90.1888 51.5493 91.8138 52.9376 91.2451C54.3259 90.6765 64.243 88.0963 64.243 88.0963L65.4416 76.1266L63.9062 72.6263Z" fill="#003D66"/>
<path d="M61.2961 98.0616C61.2961 98.0616 59.4079 95.051 59.7674 94.6095C60.1269 94.168 60.5771 94.9312 59.7674 94.1602C58.9576 93.3893 63.4986 88.2445 63.7969 87.4867C64.0951 86.7289 59.2515 73.497 59.2515 73.497L63.3768 71.0148L66.8633 66.1145L73.0987 67.1111L75.2926 71.5539L78.3914 72.6462L78.652 72.9065V80.9777C78.652 80.9777 80.0312 87.867 76.9969 90.2388C76.9969 90.2388 78.4446 93.3893 78.0549 93.9734C77.6651 94.5574 84.6727 102.232 79.1733 103.108C73.1493 104.069 60.3001 97.7212 61.2961 98.0616Z" fill="#003D66"/>
<path d="M30.368 172.69C30.3679 172.731 30.3758 172.771 30.3913 172.809C30.4069 172.847 30.4297 172.881 30.4586 172.91C30.4874 172.938 30.5216 172.961 30.5593 172.977C30.597 172.992 30.6374 173 30.6781 173H96.6899C96.7721 173 96.851 172.967 96.9092 172.909C96.9673 172.851 97 172.772 97 172.69C97 172.608 96.9673 172.529 96.9092 172.471C96.851 172.413 96.7721 172.38 96.6899 172.38H30.6781C30.6374 172.38 30.597 172.388 30.5593 172.404C30.5216 172.419 30.4874 172.442 30.4586 172.471C30.4297 172.5 30.4069 172.534 30.3913 172.571C30.3758 172.609 30.3679 172.649 30.368 172.69Z" fill="#CCCCCC"/>
<path d="M70.8996 67.3412C74.4063 67.3412 77.249 64.5013 77.249 60.998C77.249 57.4947 74.4063 54.6548 70.8996 54.6548C67.3928 54.6548 64.5501 57.4947 64.5501 60.998C64.5501 64.5013 67.3928 67.3412 70.8996 67.3412Z" fill="#A0616A"/>
<path d="M75.8059 56.3085C75.7406 55.7376 75.3489 55.0321 75.0765 54.526C74.8041 54.02 74.278 53.6067 73.7039 53.642C73.4694 53.6691 73.2449 53.7526 73.0495 53.8852C72.8542 54.0178 72.6939 54.1956 72.5823 54.4035C72.3632 54.822 72.2438 55.2855 72.2334 55.7577C72.1734 56.8113 72.3495 57.865 72.7489 58.842C73.1483 59.819 73.7608 60.6946 74.5419 61.4051C74.9869 61.8038 75.5225 62.1586 76.1201 62.1721C76.3915 62.1657 76.6589 62.105 76.9065 61.9938C77.1541 61.8825 77.3769 61.7229 77.5618 61.5244C78.5291 60.5565 78.6754 58.9655 78.1588 57.6989C77.6422 56.4324 77.4116 55.9395 76.2307 55.2477" fill="#2F2E41"/>
<path d="M66.8862 65.4317C66.9924 65.996 66.0155 68.6799 66.3276 69.1636C66.3276 69.1636 69.5603 70.2853 70.7963 70.3659C72.3063 70.4635 73.5208 69.8447 74.933 68.9133C74.9586 68.408 75.105 67.9162 75.3599 67.479C75.3386 67.8177 75.4074 68.1559 75.5596 68.4592C80.849 67.1465 79.5541 62.4045 76.3594 60.1829L74.2356 55.3031C74.8728 55.5153 72.9495 52.2371 70.9213 54.6113C68.3834 52.0292 63.467 55.7463 62.8511 59.0667C63.4438 58.3173 63.7525 58.4056 63.9045 58.9225C64.0793 58.4877 64.356 58.1014 64.7115 57.7959C64.5347 58.1449 64.4444 58.5313 64.4482 58.9224C68.4514 59.1707 67.7063 61.8687 64.4251 65.9105C65.6385 65.1559 64.8197 68.4076 65.4676 69.1848C65.4994 68.6417 66.7715 65.9599 66.8862 65.4317Z" fill="#2F2E41"/>
<path d="M72.6633 60.235C72.7145 60.235 72.764 60.2164 72.8026 60.1828C72.8412 60.1492 72.8663 60.1027 72.8734 60.0521C72.8804 60.0014 72.8689 59.9499 72.841 59.907C72.813 59.8641 72.7705 59.8328 72.7212 59.8188C72.6757 59.5577 72.6707 59.2911 72.7067 59.0285C72.7758 57.8566 72.8914 55.8951 70.9852 54.571C70.939 54.5391 70.882 54.5268 70.8267 54.5369C70.7714 54.5469 70.7223 54.5784 70.6903 54.6245C70.6582 54.6705 70.6457 54.7275 70.6555 54.7827C70.6654 54.838 70.6968 54.8871 70.7428 54.9193C72.4534 56.1077 72.3507 57.8504 72.2827 59.0036C72.2439 59.6629 72.2158 60.1391 72.6161 60.2297C72.6316 60.2333 72.6474 60.235 72.6633 60.235Z" fill="#003D66"/>
<path d="M72.5643 55.5979C73.8605 55.0605 75.2411 54.7549 76.6433 54.6949C77.7554 54.6478 79.0823 54.8955 79.5344 55.9117C79.8086 56.5282 79.6625 57.2508 79.4116 57.8771C79.1608 58.5035 77.9882 59.7679 78.6634 59.7541C80.3592 59.7194 81.083 61.2343 80.2228 63.5883C79.7239 64.9535 82.8195 64.9009 84.2627 65.0837C83.1784 65.4856 82.0775 65.8913 80.925 65.9877C79.7725 66.0841 78.5416 65.8338 77.6811 65.0618C76.7499 64.2264 76.3921 62.9289 76.2337 61.6887C76.0753 60.4484 76.0671 59.1711 75.6463 57.9936C75.2255 56.816 74.2588 55.7194 73.0116 55.615" fill="#2F2E41"/>
</g>
<defs>
<clipPath id="clip0_653_333">
<rect width="97" height="173" fill="white"/>
</clipPath>
</defs>
</svg>
